<?xml version="1.0" encoding="utf-8" ?>
<svg baseProfile="full" height="297mm" version="1.1" viewBox="0 0 210 297" width="210mm" xmlns="http://www.w3.org/2000/svg" xmlns:ev="http://www.w3.org/2001/xml-events" xmlns:xlink="http://www.w3.org/1999/xlink"><defs><style type="text/css"><![CDATA[.text {
  font-family: 'FreeSerif';
  font-weight: 500;
  font-synthesis: weight;
  font-stretch: 65%;
  fill: #000000;
  paint-order: stroke;
  stroke: #000000;
  stroke-width: 0.1px;
  stroke-linecap: butt;
  stroke-linejoin: miter;
}
]]></style></defs><g id="g_es-maj."><text class="text" font-size="5" x="6" y="10">Es-Maj.</text><rect fill="none" height="8" stroke="rgb(0%,0%,0%)" stroke-width="0.3" width="10" x="22" y="6" /><rect fill="none" height="8" stroke="rgb(0%,0%,0%)" stroke-width="0.3" width="10" x="32" y="6" /><rect fill="none" height="8" stroke="rgb(0%,0%,0%)" stroke-width="0.3" width="10" x="42" y="6" /><rect fill="none" height="8" stroke="rgb(0%,0%,0%)" stroke-width="0.3" width="10" x="52" y="6" /><rect fill="none" height="8" stroke="rgb(0%,0%,0%)" stroke-width="0.3" width="10" x="62" y="6" /><rect fill="none" height="8" stroke="rgb(0%,0%,0%)" stroke-width="0.3" width="10" x="72" y="6" /><rect fill="none" height="8" stroke="rgb(0%,0%,0%)" stroke-width="0.3" width="10" x="82" y="6" /><rect fill="none" height="8" stroke="rgb(0%,0%,0%)" stroke-width="0.3" width="10" x="92" y="6" /><rect fill="rgb(0%,0%,0%)" height="5.6" stroke="rgb(0%,0%,0%)" stroke-width="0.3" width="8" x="28" y="6" /><rect fill="rgb(0%,0%,0%)" height="5.6" stroke="rgb(0%,0%,0%)" stroke-width="0.3" width="8" x="48" y="6" /><rect fill="rgb(0%,0%,0%)" height="5.6" stroke="rgb(0%,0%,0%)" stroke-width="0.3" width="8" x="58" y="6" /><rect fill="rgb(0%,0%,0%)" height="5.6" stroke="rgb(0%,0%,0%)" stroke-width="0.3" width="8" x="68" y="6" /><rect fill="rgb(0%,0%,0%)" height="5.6" stroke="rgb(0%,0%,0%)" stroke-width="0.3" width="8" x="88" y="6" /><rect fill="rgb(0%,0%,0%)" height="5.6" stroke="rgb(0%,0%,0%)" stroke-width="0.3" width="4" x="98" y="6" /><text class="text" font-size="8" x="12" y="24">ğ„€ğ„šğ„šğ„šğ„šğ„šğ„šğ„šğ„šğ„šğ„šğ„šğ„šğ„šğ„šğ„šğ„€</text><text class="text" font-size="8" x="12" y="24">ğ„</text><text class="text" font-size="4.0" x="18" y="21.714285714285715">â™­</text><text class="text" font-size="4.0" x="20" y="19.42857142857143">â™­</text><text class="text" font-size="4.0" x="22" y="22.476190476190474">â™­</text><text class="text" font-size="8" x="27" y="24.761904761904763">ğ…	</text><text class="text" font-size="8" x="37" y="24.0">ğ…	</text><text class="text" font-size="8" x="47" y="23.238095238095237">ğ…	</text><text class="text" font-size="8" x="57" y="22.476190476190474">ğ…	</text><text class="text" font-size="8" x="67" y="21.71428571428571">ğ…	</text><text class="text" font-size="8" x="77" y="20.95238095238095">ğ…	</text><text class="text" font-size="8" x="87" y="20.190476190476186">ğ…	</text><text class="text" font-size="8" x="97" y="19.428571428571423">ğ…	</text><text class="text" font-size="8" x="12" y="35">ğ„€ğ„šğ„šğ„šğ„šğ„šğ„šğ„šğ„šğ„šğ„šğ„šğ„šğ„šğ„šğ„šğ„€</text><text class="text" font-size="8" x="12" y="35">ğ„¢</text><text class="text" font-size="4.0" x="18" y="34.23809523809524">â™­</text><text class="text" font-size="4.0" x="20" y="31.952380952380953">â™­</text><text class="text" font-size="4.0" x="22" y="35.0">â™­</text><line fill="none" stroke="rgb(0%,0%,0%)" stroke-width="0.3" x1="26.2" x2="31" y1="36.62380952380952" y2="36.62380952380952" /><text class="text" font-size="8" x="27" y="37.285714285714285">ğ…	</text><text class="text" font-size="8" x="37" y="36.523809523809526">ğ…	</text><line fill="none" stroke="rgb(0%,0%,0%)" stroke-width="0.3" x1="46.2" x2="51" y1="35.1" y2="35.1" /><text class="text" font-size="8" x="47" y="35.761904761904766">ğ…	</text><text class="text" font-size="8" x="57" y="35.00000000000001">ğ…	</text><text class="text" font-size="8" x="67" y="34.23809523809525">ğ…	</text><text class="text" font-size="8" x="77" y="33.47619047619049">ğ…	</text><text class="text" font-size="8" x="87" y="32.71428571428573">ğ…	</text><text class="text" font-size="8" x="97" y="31.952380952380967">ğ…	</text><rect fill="none" height="39" stroke="rgb(0%,0%,0%)" stroke-width="0.5" width="103" x="3" y="3" /></g><g id="g_c-min."><text class="text" font-size="5" x="109" y="10">c-Min.</text><rect fill="none" height="8" stroke="rgb(0%,0%,0%)" stroke-width="0.3" width="10" x="125" y="6" /><rect fill="none" height="8" stroke="rgb(0%,0%,0%)" stroke-width="0.3" width="10" x="135" y="6" /><rect fill="none" height="8" stroke="rgb(0%,0%,0%)" stroke-width="0.3" width="10" x="145" y="6" /><rect fill="none" height="8" stroke="rgb(0%,0%,0%)" stroke-width="0.3" width="10" x="155" y="6" /><rect fill="none" height="8" stroke="rgb(0%,0%,0%)" stroke-width="0.3" width="10" x="165" y="6" /><rect fill="none" height="8" stroke="rgb(0%,0%,0%)" stroke-width="0.3" width="10" x="175" y="6" /><rect fill="none" height="8" stroke="rgb(0%,0%,0%)" stroke-width="0.3" width="10" x="185" y="6" /><rect fill="none" height="8" stroke="rgb(0%,0%,0%)" stroke-width="0.3" width="10" x="195" y="6" /><rect fill="rgb(0%,0%,0%)" height="5.6" stroke="rgb(0%,0%,0%)" stroke-width="0.3" width="8" x="131" y="6" /><rect fill="rgb(0%,0%,0%)" height="5.6" stroke="rgb(0%,0%,0%)" stroke-width="0.3" width="8" x="141" y="6" /><rect fill="rgb(0%,0%,0%)" height="5.6" stroke="rgb(0%,0%,0%)" stroke-width="0.3" width="8" x="161" y="6" /><rect fill="rgb(0%,0%,0%)" height="5.6" stroke="rgb(0%,0%,0%)" stroke-width="0.3" width="8" x="171" y="6" /><rect fill="rgb(0%,0%,0%)" height="5.6" stroke="rgb(0%,0%,0%)" stroke-width="0.3" width="8" x="181" y="6" /><rect fill="rgb(0%,0%,0%)" height="5.6" stroke="rgb(0%,0%,0%)" stroke-width="0.3" width="4" x="201" y="6" /><text class="text" font-size="8" x="115" y="24">ğ„€ğ„šğ„šğ„šğ„šğ„šğ„šğ„šğ„šğ„šğ„šğ„šğ„šğ„šğ„šğ„šğ„€</text><text class="text" font-size="8" x="115" y="24">ğ„</text><text class="text" font-size="4.0" x="121" y="21.714285714285715">â™­</text><text class="text" font-size="4.0" x="123" y="19.42857142857143">â™­</text><text class="text" font-size="4.0" x="125" y="22.476190476190474">â™­</text><line fill="none" stroke="rgb(0%,0%,0%)" stroke-width="0.3" x1="129.2" x2="134" y1="25.623809523809523" y2="25.623809523809523" /><text class="text" font-size="8" x="130" y="26.285714285714285">ğ…	</text><text class="text" font-size="8" x="140" y="25.523809523809522">ğ…	</text><text class="text" font-size="8" x="150" y="24.76190476190476">ğ…	</text><text class="text" font-size="8" x="160" y="23.999999999999996">ğ…	</text><text class="text" font-size="8" x="170" y="23.238095238095234">ğ…	</text><text class="text" font-size="8" x="180" y="22.47619047619047">ğ…	</text><text class="text" font-size="8" x="190" y="21.714285714285708">ğ…	</text><text class="text" font-size="8" x="200" y="20.952380952380945">ğ…	</text><text class="text" font-size="8" x="115" y="35">ğ„€ğ„šğ„šğ„šğ„šğ„šğ„šğ„šğ„šğ„šğ„šğ„šğ„šğ„šğ„šğ„šğ„€</text><text class="text" font-size="8" x="115" y="35">ğ„¢</text><text class="text" font-size="4.0" x="121" y="34.23809523809524">â™­</text><text class="text" font-size="4.0" x="123" y="31.952380952380953">â™­</text><text class="text" font-size="4.0" x="125" y="35.0">â™­</text><text class="text" font-size="8" x="130" y="33.476190476190474">ğ…	</text><text class="text" font-size="8" x="140" y="32.714285714285715">ğ…	</text><text class="text" font-size="8" x="150" y="31.952380952380953">ğ…	</text><text class="text" font-size="8" x="160" y="31.19047619047619">ğ…	</text><text class="text" font-size="8" x="170" y="30.428571428571427">ğ…	</text><line fill="none" stroke="rgb(0%,0%,0%)" stroke-width="0.3" x1="179.2" x2="184" y1="29.004761904761903" y2="29.004761904761903" /><text class="text" font-size="8" x="180" y="29.666666666666664">ğ…	</text><text class="text" font-size="8" x="190" y="28.9047619047619">ğ…	</text><line fill="none" stroke="rgb(0%,0%,0%)" stroke-width="0.3" x1="199.2" x2="204" y1="27.480952380952377" y2="27.480952380952377" /><text class="text" font-size="8" x="200" y="28.14285714285714">ğ…	</text><rect fill="none" height="39" stroke="rgb(0%,0%,0%)" stroke-width="0.5" width="103" x="106" y="3" /></g><g id="g_b-maj."><text class="text" font-size="5" x="6" y="49">B-Maj.</text><rect fill="none" height="8" stroke="rgb(0%,0%,0%)" stroke-width="0.3" width="10" x="22" y="45" /><rect fill="none" height="8" stroke="rgb(0%,0%,0%)" stroke-width="0.3" width="10" x="32" y="45" /><rect fill="none" height="8" stroke="rgb(0%,0%,0%)" stroke-width="0.3" width="10" x="42" y="45" /><rect fill="none" height="8" stroke="rgb(0%,0%,0%)" stroke-width="0.3" width="10" x="52" y="45" /><rect fill="none" height="8" stroke="rgb(0%,0%,0%)" stroke-width="0.3" width="10" x="62" y="45" /><rect fill="none" height="8" stroke="rgb(0%,0%,0%)" stroke-width="0.3" width="10" x="72" y="45" /><rect fill="none" height="8" stroke="rgb(0%,0%,0%)" stroke-width="0.3" width="10" x="82" y="45" /><rect fill="none" height="8" stroke="rgb(0%,0%,0%)" stroke-width="0.3" width="10" x="92" y="45" /><rect fill="rgb(0%,0%,0%)" height="5.6" stroke="rgb(0%,0%,0%)" stroke-width="0.3" width="8" x="28" y="45" /><rect fill="rgb(0%,0%,0%)" height="5.6" stroke="rgb(0%,0%,0%)" stroke-width="0.3" width="8" x="48" y="45" /><rect fill="rgb(0%,0%,0%)" height="5.6" stroke="rgb(0%,0%,0%)" stroke-width="0.3" width="8" x="58" y="45" /><rect fill="rgb(0%,0%,0%)" height="5.6" stroke="rgb(0%,0%,0%)" stroke-width="0.3" width="8" x="78" y="45" /><rect fill="rgb(0%,0%,0%)" height="5.6" stroke="rgb(0%,0%,0%)" stroke-width="0.3" width="8" x="88" y="45" /><rect fill="rgb(0%,0%,0%)" height="5.6" stroke="rgb(0%,0%,0%)" stroke-width="0.3" width="4" x="98" y="45" /><text class="text" font-size="8" x="12" y="63">ğ„€ğ„šğ„šğ„šğ„šğ„šğ„šğ„šğ„šğ„šğ„šğ„šğ„šğ„šğ„šğ„šğ„€</text><text class="text" font-size="8" x="12" y="63">ğ„</text><text class="text" font-size="4.0" x="18" y="60.714285714285715">â™­</text><text class="text" font-size="4.0" x="20" y="58.42857142857143">â™­</text><text class="text" font-size="8" x="27" y="60.714285714285715">ğ…	</text><text class="text" font-size="8" x="37" y="59.952380952380956">ğ…	</text><text class="text" font-size="8" x="47" y="59.1904761904762">ğ…	</text><text class="text" font-size="8" x="57" y="58.42857142857144">ğ…	</text><text class="text" font-size="8" x="67" y="57.66666666666668">ğ…	</text><text class="text" font-size="8" x="77" y="56.90476190476192">ğ…	</text><line fill="none" stroke="rgb(0%,0%,0%)" stroke-width="0.3" x1="86.2" x2="91" y1="55.480952380952395" y2="55.480952380952395" /><text class="text" font-size="8" x="87" y="56.14285714285716">ğ…	</text><text class="text" font-size="8" x="97" y="55.3809523809524">ğ…	</text><text class="text" font-size="8" x="12" y="74">ğ„€ğ„šğ„šğ„šğ„šğ„šğ„šğ„šğ„šğ„šğ„šğ„šğ„šğ„šğ„šğ„šğ„€</text><text class="text" font-size="8" x="12" y="74">ğ„¢</text><text class="text" font-size="4.0" x="18" y="73.23809523809524">â™­</text><text class="text" font-size="4.0" x="20" y="70.95238095238095">â™­</text><text class="text" font-size="8" x="27" y="73.23809523809524">ğ…	</text><text class="text" font-size="8" x="37" y="72.47619047619048">ğ…	</text><text class="text" font-size="8" x="47" y="71.71428571428572">ğ…	</text><text class="text" font-size="8" x="57" y="70.95238095238096">ğ…	</text><text class="text" font-size="8" x="67" y="70.1904761904762">ğ…	</text><text class="text" font-size="8" x="77" y="69.42857142857144">ğ…	</text><text class="text" font-size="8" x="87" y="68.66666666666669">ğ…	</text><text class="text" font-size="8" x="97" y="67.90476190476193">ğ…	</text><rect fill="none" height="39" stroke="rgb(0%,0%,0%)" stroke-width="0.5" width="103" x="3" y="42" /></g><g id="g_g-min."><text class="text" font-size="5" x="109" y="49">g-Min.</text><rect fill="none" height="8" stroke="rgb(0%,0%,0%)" stroke-width="0.3" width="10" x="125" y="45" /><rect fill="none" height="8" stroke="rgb(0%,0%,0%)" stroke-width="0.3" width="10" x="135" y="45" /><rect fill="none" height="8" stroke="rgb(0%,0%,0%)" stroke-width="0.3" width="10" x="145" y="45" /><rect fill="none" height="8" stroke="rgb(0%,0%,0%)" stroke-width="0.3" width="10" x="155" y="45" /><rect fill="none" height="8" stroke="rgb(0%,0%,0%)" stroke-width="0.3" width="10" x="165" y="45" /><rect fill="none" height="8" stroke="rgb(0%,0%,0%)" stroke-width="0.3" width="10" x="175" y="45" /><rect fill="none" height="8" stroke="rgb(0%,0%,0%)" stroke-width="0.3" width="10" x="185" y="45" /><rect fill="none" height="8" stroke="rgb(0%,0%,0%)" stroke-width="0.3" width="10" x="195" y="45" /><rect fill="rgb(0%,0%,0%)" height="5.6" stroke="rgb(0%,0%,0%)" stroke-width="0.3" width="8" x="131" y="45" /><rect fill="rgb(0%,0%,0%)" height="5.6" stroke="rgb(0%,0%,0%)" stroke-width="0.3" width="8" x="141" y="45" /><rect fill="rgb(0%,0%,0%)" height="5.6" stroke="rgb(0%,0%,0%)" stroke-width="0.3" width="8" x="161" y="45" /><rect fill="rgb(0%,0%,0%)" height="5.6" stroke="rgb(0%,0%,0%)" stroke-width="0.3" width="8" x="171" y="45" /><rect fill="rgb(0%,0%,0%)" height="5.6" stroke="rgb(0%,0%,0%)" stroke-width="0.3" width="8" x="191" y="45" /><rect fill="rgb(0%,0%,0%)" height="5.6" stroke="rgb(0%,0%,0%)" stroke-width="0.3" width="4" x="201" y="45" /><text class="text" font-size="8" x="115" y="63">ğ„€ğ„šğ„šğ„šğ„šğ„šğ„šğ„šğ„šğ„šğ„šğ„šğ„šğ„šğ„šğ„šğ„€</text><text class="text" font-size="8" x="115" y="63">ğ„</text><text class="text" font-size="4.0" x="121" y="60.714285714285715">â™­</text><text class="text" font-size="4.0" x="123" y="58.42857142857143">â™­</text><text class="text" font-size="8" x="130" y="62.23809523809524">ğ…	</text><text class="text" font-size="8" x="140" y="61.47619047619048">ğ…	</text><text class="text" font-size="8" x="150" y="60.71428571428572">ğ…	</text><text class="text" font-size="8" x="160" y="59.95238095238096">ğ…	</text><text class="text" font-size="8" x="170" y="59.190476190476204">ğ…	</text><text class="text" font-size="8" x="180" y="58.428571428571445">ğ…	</text><text class="text" font-size="8" x="190" y="57.666666666666686">ğ…	</text><text class="text" font-size="8" x="200" y="56.904761904761926">ğ…	</text><text class="text" font-size="8" x="115" y="74">ğ„€ğ„šğ„šğ„šğ„šğ„šğ„šğ„šğ„šğ„šğ„šğ„šğ„šğ„šğ„šğ„šğ„€</text><text class="text" font-size="8" x="115" y="74">ğ„¢</text><text class="text" font-size="4.0" x="121" y="73.23809523809524">â™­</text><text class="text" font-size="4.0" x="123" y="70.95238095238095">â™­</text><text class="text" font-size="8" x="130" y="74.76190476190476">ğ…	</text><text class="text" font-size="8" x="140" y="74.0">ğ…	</text><text class="text" font-size="8" x="150" y="73.23809523809524">ğ…	</text><text class="text" font-size="8" x="160" y="72.47619047619048">ğ…	</text><text class="text" font-size="8" x="170" y="71.71428571428572">ğ…	</text><text class="text" font-size="8" x="180" y="70.95238095238096">ğ…	</text><text class="text" font-size="8" x="190" y="70.1904761904762">ğ…	</text><text class="text" font-size="8" x="200" y="69.42857142857144">ğ…	</text><rect fill="none" height="39" stroke="rgb(0%,0%,0%)" stroke-width="0.5" width="103" x="106" y="42" /></g><g id="g_f-maj."><text class="text" font-size="5" x="6" y="88">F-Maj.</text><rect fill="none" height="8" stroke="rgb(0%,0%,0%)" stroke-width="0.3" width="10" x="22" y="84" /><rect fill="none" height="8" stroke="rgb(0%,0%,0%)" stroke-width="0.3" width="10" x="32" y="84" /><rect fill="none" height="8" stroke="rgb(0%,0%,0%)" stroke-width="0.3" width="10" x="42" y="84" /><rect fill="none" height="8" stroke="rgb(0%,0%,0%)" stroke-width="0.3" width="10" x="52" y="84" /><rect fill="none" height="8" stroke="rgb(0%,0%,0%)" stroke-width="0.3" width="10" x="62" y="84" /><rect fill="none" height="8" stroke="rgb(0%,0%,0%)" stroke-width="0.3" width="10" x="72" y="84" /><rect fill="none" height="8" stroke="rgb(0%,0%,0%)" stroke-width="0.3" width="10" x="82" y="84" /><rect fill="none" height="8" stroke="rgb(0%,0%,0%)" stroke-width="0.3" width="10" x="92" y="84" /><rect fill="rgb(0%,0%,0%)" height="5.6" stroke="rgb(0%,0%,0%)" stroke-width="0.3" width="8" x="28" y="84" /><rect fill="rgb(0%,0%,0%)" height="5.6" stroke="rgb(0%,0%,0%)" stroke-width="0.3" width="8" x="38" y="84" /><rect fill="rgb(0%,0%,0%)" height="5.6" stroke="rgb(0%,0%,0%)" stroke-width="0.3" width="8" x="48" y="84" /><rect fill="rgb(0%,0%,0%)" height="5.6" stroke="rgb(0%,0%,0%)" stroke-width="0.3" width="8" x="68" y="84" /><rect fill="rgb(0%,0%,0%)" height="5.6" stroke="rgb(0%,0%,0%)" stroke-width="0.3" width="8" x="78" y="84" /><rect fill="rgb(0%,0%,0%)" height="5.6" stroke="rgb(0%,0%,0%)" stroke-width="0.3" width="4" x="98" y="84" /><text class="text" font-size="8" x="12" y="102">ğ„€ğ„šğ„šğ„šğ„šğ„šğ„šğ„šğ„šğ„šğ„šğ„šğ„šğ„šğ„šğ„šğ„€</text><text class="text" font-size="8" x="12" y="102">ğ„</text><text class="text" font-size="4.0" x="18" y="99.71428571428571">â™­</text><text class="text" font-size="8" x="27" y="102.0">ğ…	</text><text class="text" font-size="8" x="37" y="101.23809523809524">ğ…	</text><text class="text" font-size="8" x="47" y="100.47619047619048">ğ…	</text><text class="text" font-size="8" x="57" y="99.71428571428572">ğ…	</text><text class="text" font-size="8" x="67" y="98.95238095238096">ğ…	</text><text class="text" font-size="8" x="77" y="98.1904761904762">ğ…	</text><text class="text" font-size="8" x="87" y="97.42857142857144">ğ…	</text><text class="text" font-size="8" x="97" y="96.66666666666669">ğ…	</text><text class="text" font-size="8" x="12" y="113">ğ„€ğ„šğ„šğ„šğ„šğ„šğ„šğ„šğ„šğ„šğ„šğ„šğ„šğ„šğ„šğ„šğ„€</text><text class="text" font-size="8" x="12" y="113">ğ„¢</text><text class="text" font-size="4.0" x="18" y="112.23809523809524">â™­</text><text class="text" font-size="8" x="27" y="114.52380952380952">ğ…	</text><text class="text" font-size="8" x="37" y="113.76190476190476">ğ…	</text><text class="text" font-size="8" x="47" y="113.0">ğ…	</text><text class="text" font-size="8" x="57" y="112.23809523809524">ğ…	</text><text class="text" font-size="8" x="67" y="111.47619047619048">ğ…	</text><text class="text" font-size="8" x="77" y="110.71428571428572">ğ…	</text><text class="text" font-size="8" x="87" y="109.95238095238096">ğ…	</text><text class="text" font-size="8" x="97" y="109.1904761904762">ğ…	</text><rect fill="none" height="39" stroke="rgb(0%,0%,0%)" stroke-width="0.5" width="103" x="3" y="81" /></g><g id="g_d-min."><text class="text" font-size="5" x="109" y="88">d-Min.</text><rect fill="none" height="8" stroke="rgb(0%,0%,0%)" stroke-width="0.3" width="10" x="125" y="84" /><rect fill="none" height="8" stroke="rgb(0%,0%,0%)" stroke-width="0.3" width="10" x="135" y="84" /><rect fill="none" height="8" stroke="rgb(0%,0%,0%)" stroke-width="0.3" width="10" x="145" y="84" /><rect fill="none" height="8" stroke="rgb(0%,0%,0%)" stroke-width="0.3" width="10" x="155" y="84" /><rect fill="none" height="8" stroke="rgb(0%,0%,0%)" stroke-width="0.3" width="10" x="165" y="84" /><rect fill="none" height="8" stroke="rgb(0%,0%,0%)" stroke-width="0.3" width="10" x="175" y="84" /><rect fill="none" height="8" stroke="rgb(0%,0%,0%)" stroke-width="0.3" width="10" x="185" y="84" /><rect fill="none" height="8" stroke="rgb(0%,0%,0%)" stroke-width="0.3" width="10" x="195" y="84" /><rect fill="rgb(0%,0%,0%)" height="5.6" stroke="rgb(0%,0%,0%)" stroke-width="0.3" width="8" x="131" y="84" /><rect fill="rgb(0%,0%,0%)" height="5.6" stroke="rgb(0%,0%,0%)" stroke-width="0.3" width="8" x="151" y="84" /><rect fill="rgb(0%,0%,0%)" height="5.6" stroke="rgb(0%,0%,0%)" stroke-width="0.3" width="8" x="161" y="84" /><rect fill="rgb(0%,0%,0%)" height="5.6" stroke="rgb(0%,0%,0%)" stroke-width="0.3" width="8" x="171" y="84" /><rect fill="rgb(0%,0%,0%)" height="5.6" stroke="rgb(0%,0%,0%)" stroke-width="0.3" width="8" x="191" y="84" /><rect fill="rgb(0%,0%,0%)" height="5.6" stroke="rgb(0%,0%,0%)" stroke-width="0.3" width="4" x="201" y="84" /><text class="text" font-size="8" x="115" y="102">ğ„€ğ„šğ„šğ„šğ„šğ„šğ„šğ„šğ„šğ„šğ„šğ„šğ„šğ„šğ„šğ„šğ„€</text><text class="text" font-size="8" x="115" y="102">ğ„</text><text class="text" font-size="4.0" x="121" y="99.71428571428571">â™­</text><text class="text" font-size="8" x="130" y="103.52380952380952">ğ…	</text><text class="text" font-size="8" x="140" y="102.76190476190476">ğ…	</text><text class="text" font-size="8" x="150" y="102.0">ğ…	</text><text class="text" font-size="8" x="160" y="101.23809523809524">ğ…	</text><text class="text" font-size="8" x="170" y="100.47619047619048">ğ…	</text><text class="text" font-size="8" x="180" y="99.71428571428572">ğ…	</text><text class="text" font-size="8" x="190" y="98.95238095238096">ğ…	</text><text class="text" font-size="8" x="200" y="98.1904761904762">ğ…	</text><text class="text" font-size="8" x="115" y="113">ğ„€ğ„šğ„šğ„šğ„šğ„šğ„šğ„šğ„šğ„šğ„šğ„šğ„šğ„šğ„šğ„šğ„€</text><text class="text" font-size="8" x="115" y="113">ğ„¢</text><text class="text" font-size="4.0" x="121" y="112.23809523809524">â™­</text><text class="text" font-size="8" x="130" y="110.71428571428571">ğ…	</text><text class="text" font-size="8" x="140" y="109.95238095238095">ğ…	</text><text class="text" font-size="8" x="150" y="109.19047619047619">ğ…	</text><text class="text" font-size="8" x="160" y="108.42857142857143">ğ…	</text><text class="text" font-size="8" x="170" y="107.66666666666667">ğ…	</text><text class="text" font-size="8" x="180" y="106.90476190476191">ğ…	</text><line fill="none" stroke="rgb(0%,0%,0%)" stroke-width="0.3" x1="189.2" x2="194" y1="105.48095238095239" y2="105.48095238095239" /><text class="text" font-size="8" x="190" y="106.14285714285715">ğ…	</text><text class="text" font-size="8" x="200" y="105.3809523809524">ğ…	</text><rect fill="none" height="39" stroke="rgb(0%,0%,0%)" stroke-width="0.5" width="103" x="106" y="81" /></g><g id="g_c-maj."><text class="text" font-size="5" x="6" y="127">C-Maj.</text><rect fill="none" height="8" stroke="rgb(0%,0%,0%)" stroke-width="0.3" width="10" x="22" y="123" /><rect fill="none" height="8" stroke="rgb(0%,0%,0%)" stroke-width="0.3" width="10" x="32" y="123" /><rect fill="none" height="8" stroke="rgb(0%,0%,0%)" stroke-width="0.3" width="10" x="42" y="123" /><rect fill="none" height="8" stroke="rgb(0%,0%,0%)" stroke-width="0.3" width="10" x="52" y="123" /><rect fill="none" height="8" stroke="rgb(0%,0%,0%)" stroke-width="0.3" width="10" x="62" y="123" /><rect fill="none" height="8" stroke="rgb(0%,0%,0%)" stroke-width="0.3" width="10" x="72" y="123" /><rect fill="none" height="8" stroke="rgb(0%,0%,0%)" stroke-width="0.3" width="10" x="82" y="123" /><rect fill="none" height="8" stroke="rgb(0%,0%,0%)" stroke-width="0.3" width="10" x="92" y="123" /><rect fill="rgb(0%,0%,0%)" height="5.6" stroke="rgb(0%,0%,0%)" stroke-width="0.3" width="8" x="28" y="123" /><rect fill="rgb(0%,0%,0%)" height="5.6" stroke="rgb(0%,0%,0%)" stroke-width="0.3" width="8" x="38" y="123" /><rect fill="rgb(0%,0%,0%)" height="5.6" stroke="rgb(0%,0%,0%)" stroke-width="0.3" width="8" x="58" y="123" /><rect fill="rgb(0%,0%,0%)" height="5.6" stroke="rgb(0%,0%,0%)" stroke-width="0.3" width="8" x="68" y="123" /><rect fill="rgb(0%,0%,0%)" height="5.6" stroke="rgb(0%,0%,0%)" stroke-width="0.3" width="8" x="78" y="123" /><rect fill="rgb(0%,0%,0%)" height="5.6" stroke="rgb(0%,0%,0%)" stroke-width="0.3" width="4" x="98" y="123" /><text class="text" font-size="8" x="12" y="141">ğ„€ğ„šğ„šğ„šğ„šğ„šğ„šğ„šğ„šğ„šğ„šğ„šğ„šğ„šğ„šğ„šğ„€</text><text class="text" font-size="8" x="12" y="141">ğ„</text><line fill="none" stroke="rgb(0%,0%,0%)" stroke-width="0.3" x1="26.2" x2="31" y1="142.6238095238095" y2="142.6238095238095" /><text class="text" font-size="8" x="27" y="143.28571428571428">ğ…	</text><text class="text" font-size="8" x="37" y="142.52380952380952">ğ…	</text><text class="text" font-size="8" x="47" y="141.76190476190476">ğ…	</text><text class="text" font-size="8" x="57" y="141.0">ğ…	</text><text class="text" font-size="8" x="67" y="140.23809523809524">ğ…	</text><text class="text" font-size="8" x="77" y="139.47619047619048">ğ…	</text><text class="text" font-size="8" x="87" y="138.71428571428572">ğ…	</text><text class="text" font-size="8" x="97" y="137.95238095238096">ğ…	</text><text class="text" font-size="8" x="12" y="152">ğ„€ğ„šğ„šğ„šğ„šğ„šğ„šğ„šğ„šğ„šğ„šğ„šğ„šğ„šğ„šğ„šğ„€</text><text class="text" font-size="8" x="12" y="152">ğ„¢</text><text class="text" font-size="8" x="27" y="150.47619047619048">ğ…	</text><text class="text" font-size="8" x="37" y="149.71428571428572">ğ…	</text><text class="text" font-size="8" x="47" y="148.95238095238096">ğ…	</text><text class="text" font-size="8" x="57" y="148.1904761904762">ğ…	</text><text class="text" font-size="8" x="67" y="147.42857142857144">ğ…	</text><text class="text" font-size="8" x="77" y="146.66666666666669">ğ…	</text><text class="text" font-size="8" x="87" y="145.90476190476193">ğ…	</text><line fill="none" stroke="rgb(0%,0%,0%)" stroke-width="0.3" x1="96.2" x2="101" y1="144.4809523809524" y2="144.4809523809524" /><text class="text" font-size="8" x="97" y="145.14285714285717">ğ…	</text><rect fill="none" height="39" stroke="rgb(0%,0%,0%)" stroke-width="0.5" width="103" x="3" y="120" /></g><g id="g_a-min."><text class="text" font-size="5" x="109" y="127">a-Min.</text><rect fill="none" height="8" stroke="rgb(0%,0%,0%)" stroke-width="0.3" width="10" x="125" y="123" /><rect fill="none" height="8" stroke="rgb(0%,0%,0%)" stroke-width="0.3" width="10" x="135" y="123" /><rect fill="none" height="8" stroke="rgb(0%,0%,0%)" stroke-width="0.3" width="10" x="145" y="123" /><rect fill="none" height="8" stroke="rgb(0%,0%,0%)" stroke-width="0.3" width="10" x="155" y="123" /><rect fill="none" height="8" stroke="rgb(0%,0%,0%)" stroke-width="0.3" width="10" x="165" y="123" /><rect fill="none" height="8" stroke="rgb(0%,0%,0%)" stroke-width="0.3" width="10" x="175" y="123" /><rect fill="none" height="8" stroke="rgb(0%,0%,0%)" stroke-width="0.3" width="10" x="185" y="123" /><rect fill="none" height="8" stroke="rgb(0%,0%,0%)" stroke-width="0.3" width="10" x="195" y="123" /><rect fill="rgb(0%,0%,0%)" height="5.6" stroke="rgb(0%,0%,0%)" stroke-width="0.3" width="8" x="131" y="123" /><rect fill="rgb(0%,0%,0%)" height="5.6" stroke="rgb(0%,0%,0%)" stroke-width="0.3" width="8" x="151" y="123" /><rect fill="rgb(0%,0%,0%)" height="5.6" stroke="rgb(0%,0%,0%)" stroke-width="0.3" width="8" x="161" y="123" /><rect fill="rgb(0%,0%,0%)" height="5.6" stroke="rgb(0%,0%,0%)" stroke-width="0.3" width="8" x="181" y="123" /><rect fill="rgb(0%,0%,0%)" height="5.6" stroke="rgb(0%,0%,0%)" stroke-width="0.3" width="8" x="191" y="123" /><rect fill="rgb(0%,0%,0%)" height="5.6" stroke="rgb(0%,0%,0%)" stroke-width="0.3" width="4" x="201" y="123" /><text class="text" font-size="8" x="115" y="141">ğ„€ğ„šğ„šğ„šğ„šğ„šğ„šğ„šğ„šğ„šğ„šğ„šğ„šğ„šğ„šğ„šğ„€</text><text class="text" font-size="8" x="115" y="141">ğ„</text><text class="text" font-size="8" x="130" y="139.47619047619048">ğ…	</text><text class="text" font-size="8" x="140" y="138.71428571428572">ğ…	</text><text class="text" font-size="8" x="150" y="137.95238095238096">ğ…	</text><text class="text" font-size="8" x="160" y="137.1904761904762">ğ…	</text><text class="text" font-size="8" x="170" y="136.42857142857144">ğ…	</text><text class="text" font-size="8" x="180" y="135.66666666666669">ğ…	</text><text class="text" font-size="8" x="190" y="134.90476190476193">ğ…	</text><line fill="none" stroke="rgb(0%,0%,0%)" stroke-width="0.3" x1="199.2" x2="204" y1="133.4809523809524" y2="133.4809523809524" /><text class="text" font-size="8" x="200" y="134.14285714285717">ğ…	</text><text class="text" font-size="8" x="115" y="152">ğ„€ğ„šğ„šğ„šğ„šğ„šğ„šğ„šğ„šğ„šğ„šğ„šğ„šğ„šğ„šğ„šğ„€</text><text class="text" font-size="8" x="115" y="152">ğ„¢</text><text class="text" font-size="8" x="130" y="152.0">ğ…	</text><text class="text" font-size="8" x="140" y="151.23809523809524">ğ…	</text><text class="text" font-size="8" x="150" y="150.47619047619048">ğ…	</text><text class="text" font-size="8" x="160" y="149.71428571428572">ğ…	</text><text class="text" font-size="8" x="170" y="148.95238095238096">ğ…	</text><text class="text" font-size="8" x="180" y="148.1904761904762">ğ…	</text><text class="text" font-size="8" x="190" y="147.42857142857144">ğ…	</text><text class="text" font-size="8" x="200" y="146.66666666666669">ğ…	</text><rect fill="none" height="39" stroke="rgb(0%,0%,0%)" stroke-width="0.5" width="103" x="106" y="120" /></g><g id="g_g-maj."><text class="text" font-size="5" x="6" y="166">G-Maj.</text><rect fill="none" height="8" stroke="rgb(0%,0%,0%)" stroke-width="0.3" width="10" x="22" y="162" /><rect fill="none" height="8" stroke="rgb(0%,0%,0%)" stroke-width="0.3" width="10" x="32" y="162" /><rect fill="none" height="8" stroke="rgb(0%,0%,0%)" stroke-width="0.3" width="10" x="42" y="162" /><rect fill="none" height="8" stroke="rgb(0%,0%,0%)" stroke-width="0.3" width="10" x="52" y="162" /><rect fill="none" height="8" stroke="rgb(0%,0%,0%)" stroke-width="0.3" width="10" x="62" y="162" /><rect fill="none" height="8" stroke="rgb(0%,0%,0%)" stroke-width="0.3" width="10" x="72" y="162" /><rect fill="none" height="8" stroke="rgb(0%,0%,0%)" stroke-width="0.3" width="10" x="82" y="162" /><rect fill="none" height="8" stroke="rgb(0%,0%,0%)" stroke-width="0.3" width="10" x="92" y="162" /><rect fill="rgb(0%,0%,0%)" height="5.6" stroke="rgb(0%,0%,0%)" stroke-width="0.3" width="8" x="28" y="162" /><rect fill="rgb(0%,0%,0%)" height="5.6" stroke="rgb(0%,0%,0%)" stroke-width="0.3" width="8" x="38" y="162" /><rect fill="rgb(0%,0%,0%)" height="5.6" stroke="rgb(0%,0%,0%)" stroke-width="0.3" width="8" x="58" y="162" /><rect fill="rgb(0%,0%,0%)" height="5.6" stroke="rgb(0%,0%,0%)" stroke-width="0.3" width="8" x="68" y="162" /><rect fill="rgb(0%,0%,0%)" height="5.6" stroke="rgb(0%,0%,0%)" stroke-width="0.3" width="8" x="88" y="162" /><rect fill="rgb(0%,0%,0%)" height="5.6" stroke="rgb(0%,0%,0%)" stroke-width="0.3" width="4" x="98" y="162" /><text class="text" font-size="8" x="12" y="180">ğ„€ğ„šğ„šğ„šğ„šğ„šğ„šğ„šğ„šğ„šğ„šğ„šğ„šğ„šğ„šğ„šğ„€</text><text class="text" font-size="8" x="12" y="180">ğ„</text><text class="text" font-size="4.0" x="18" y="174.66666666666666">â™¯</text><text class="text" font-size="8" x="27" y="179.23809523809524">ğ…	</text><text class="text" font-size="8" x="37" y="178.47619047619048">ğ…	</text><text class="text" font-size="8" x="47" y="177.71428571428572">ğ…	</text><text class="text" font-size="8" x="57" y="176.95238095238096">ğ…	</text><text class="text" font-size="8" x="67" y="176.1904761904762">ğ…	</text><text class="text" font-size="8" x="77" y="175.42857142857144">ğ…	</text><text class="text" font-size="8" x="87" y="174.66666666666669">ğ…	</text><text class="text" font-size="8" x="97" y="173.90476190476193">ğ…	</text><text class="text" font-size="8" x="12" y="191">ğ„€ğ„šğ„šğ„šğ„šğ„šğ„šğ„šğ„šğ„šğ„šğ„šğ„šğ„šğ„šğ„šğ„€</text><text class="text" font-size="8" x="12" y="191">ğ„¢</text><text class="text" font-size="4.0" x="18" y="187.1904761904762">â™¯</text><text class="text" font-size="8" x="27" y="191.76190476190476">ğ…	</text><text class="text" font-size="8" x="37" y="191.0">ğ…	</text><text class="text" font-size="8" x="47" y="190.23809523809524">ğ…	</text><text class="text" font-size="8" x="57" y="189.47619047619048">ğ…	</text><text class="text" font-size="8" x="67" y="188.71428571428572">ğ…	</text><text class="text" font-size="8" x="77" y="187.95238095238096">ğ…	</text><text class="text" font-size="8" x="87" y="187.1904761904762">ğ…	</text><text class="text" font-size="8" x="97" y="186.42857142857144">ğ…	</text><rect fill="none" height="39" stroke="rgb(0%,0%,0%)" stroke-width="0.5" width="103" x="3" y="159" /></g><g id="g_e-min."><text class="text" font-size="5" x="109" y="166">e-Min.</text><rect fill="none" height="8" stroke="rgb(0%,0%,0%)" stroke-width="0.3" width="10" x="125" y="162" /><rect fill="none" height="8" stroke="rgb(0%,0%,0%)" stroke-width="0.3" width="10" x="135" y="162" /><rect fill="none" height="8" stroke="rgb(0%,0%,0%)" stroke-width="0.3" width="10" x="145" y="162" /><rect fill="none" height="8" stroke="rgb(0%,0%,0%)" stroke-width="0.3" width="10" x="155" y="162" /><rect fill="none" height="8" stroke="rgb(0%,0%,0%)" stroke-width="0.3" width="10" x="165" y="162" /><rect fill="none" height="8" stroke="rgb(0%,0%,0%)" stroke-width="0.3" width="10" x="175" y="162" /><rect fill="none" height="8" stroke="rgb(0%,0%,0%)" stroke-width="0.3" width="10" x="185" y="162" /><rect fill="none" height="8" stroke="rgb(0%,0%,0%)" stroke-width="0.3" width="10" x="195" y="162" /><rect fill="rgb(0%,0%,0%)" height="5.6" stroke="rgb(0%,0%,0%)" stroke-width="0.3" width="8" x="141" y="162" /><rect fill="rgb(0%,0%,0%)" height="5.6" stroke="rgb(0%,0%,0%)" stroke-width="0.3" width="8" x="151" y="162" /><rect fill="rgb(0%,0%,0%)" height="5.6" stroke="rgb(0%,0%,0%)" stroke-width="0.3" width="8" x="161" y="162" /><rect fill="rgb(0%,0%,0%)" height="5.6" stroke="rgb(0%,0%,0%)" stroke-width="0.3" width="8" x="181" y="162" /><rect fill="rgb(0%,0%,0%)" height="5.6" stroke="rgb(0%,0%,0%)" stroke-width="0.3" width="8" x="191" y="162" /><text class="text" font-size="8" x="115" y="180">ğ„€ğ„šğ„šğ„šğ„šğ„šğ„šğ„šğ„šğ„šğ„šğ„šğ„šğ„šğ„šğ„šğ„€</text><text class="text" font-size="8" x="115" y="180">ğ„</text><text class="text" font-size="4.0" x="121" y="174.66666666666666">â™¯</text><text class="text" font-size="8" x="130" y="180.76190476190476">ğ…	</text><text class="text" font-size="8" x="140" y="180.0">ğ…	</text><text class="text" font-size="8" x="150" y="179.23809523809524">ğ…	</text><text class="text" font-size="8" x="160" y="178.47619047619048">ğ…	</text><text class="text" font-size="8" x="170" y="177.71428571428572">ğ…	</text><text class="text" font-size="8" x="180" y="176.95238095238096">ğ…	</text><text class="text" font-size="8" x="190" y="176.1904761904762">ğ…	</text><text class="text" font-size="8" x="200" y="175.42857142857144">ğ…	</text><text class="text" font-size="8" x="115" y="191">ğ„€ğ„šğ„šğ„šğ„šğ„šğ„šğ„šğ„šğ„šğ„šğ„šğ„šğ„šğ„šğ„šğ„€</text><text class="text" font-size="8" x="115" y="191">ğ„¢</text><text class="text" font-size="4.0" x="121" y="187.1904761904762">â™¯</text><line fill="none" stroke="rgb(0%,0%,0%)" stroke-width="0.3" x1="129.2" x2="134" y1="192.6238095238095" y2="192.6238095238095" /><text class="text" font-size="8" x="130" y="193.28571428571428">ğ…	</text><text class="text" font-size="8" x="140" y="192.52380952380952">ğ…	</text><text class="text" font-size="8" x="150" y="191.76190476190476">ğ…	</text><text class="text" font-size="8" x="160" y="191.0">ğ…	</text><text class="text" font-size="8" x="170" y="190.23809523809524">ğ…	</text><text class="text" font-size="8" x="180" y="189.47619047619048">ğ…	</text><text class="text" font-size="8" x="190" y="188.71428571428572">ğ…	</text><text class="text" font-size="8" x="200" y="187.95238095238096">ğ…	</text><rect fill="none" height="39" stroke="rgb(0%,0%,0%)" stroke-width="0.5" width="103" x="106" y="159" /></g><g id="g_d-maj."><text class="text" font-size="5" x="6" y="205">D-Maj.</text><rect fill="none" height="8" stroke="rgb(0%,0%,0%)" stroke-width="0.3" width="10" x="22" y="201" /><rect fill="none" height="8" stroke="rgb(0%,0%,0%)" stroke-width="0.3" width="10" x="32" y="201" /><rect fill="none" height="8" stroke="rgb(0%,0%,0%)" stroke-width="0.3" width="10" x="42" y="201" /><rect fill="none" height="8" stroke="rgb(0%,0%,0%)" stroke-width="0.3" width="10" x="52" y="201" /><rect fill="none" height="8" stroke="rgb(0%,0%,0%)" stroke-width="0.3" width="10" x="62" y="201" /><rect fill="none" height="8" stroke="rgb(0%,0%,0%)" stroke-width="0.3" width="10" x="72" y="201" /><rect fill="none" height="8" stroke="rgb(0%,0%,0%)" stroke-width="0.3" width="10" x="82" y="201" /><rect fill="none" height="8" stroke="rgb(0%,0%,0%)" stroke-width="0.3" width="10" x="92" y="201" /><rect fill="rgb(0%,0%,0%)" height="5.6" stroke="rgb(0%,0%,0%)" stroke-width="0.3" width="8" x="28" y="201" /><rect fill="rgb(0%,0%,0%)" height="5.6" stroke="rgb(0%,0%,0%)" stroke-width="0.3" width="8" x="48" y="201" /><rect fill="rgb(0%,0%,0%)" height="5.6" stroke="rgb(0%,0%,0%)" stroke-width="0.3" width="8" x="58" y="201" /><rect fill="rgb(0%,0%,0%)" height="5.6" stroke="rgb(0%,0%,0%)" stroke-width="0.3" width="8" x="68" y="201" /><rect fill="rgb(0%,0%,0%)" height="5.6" stroke="rgb(0%,0%,0%)" stroke-width="0.3" width="8" x="88" y="201" /><rect fill="rgb(0%,0%,0%)" height="5.6" stroke="rgb(0%,0%,0%)" stroke-width="0.3" width="4" x="98" y="201" /><text class="text" font-size="8" x="12" y="219">ğ„€ğ„šğ„šğ„šğ„šğ„šğ„šğ„šğ„šğ„šğ„šğ„šğ„šğ„šğ„šğ„šğ„€</text><text class="text" font-size="8" x="12" y="219">ğ„</text><text class="text" font-size="4.0" x="18" y="213.66666666666666">â™¯</text><text class="text" font-size="4.0" x="20" y="215.95238095238096">â™¯</text><text class="text" font-size="8" x="27" y="220.52380952380952">ğ…	</text><text class="text" font-size="8" x="37" y="219.76190476190476">ğ…	</text><text class="text" font-size="8" x="47" y="219.0">ğ…	</text><text class="text" font-size="8" x="57" y="218.23809523809524">ğ…	</text><text class="text" font-size="8" x="67" y="217.47619047619048">ğ…	</text><text class="text" font-size="8" x="77" y="216.71428571428572">ğ…	</text><text class="text" font-size="8" x="87" y="215.95238095238096">ğ…	</text><text class="text" font-size="8" x="97" y="215.1904761904762">ğ…	</text><text class="text" font-size="8" x="12" y="230">ğ„€ğ„šğ„šğ„šğ„šğ„šğ„šğ„šğ„šğ„šğ„šğ„šğ„šğ„šğ„šğ„šğ„€</text><text class="text" font-size="8" x="12" y="230">ğ„¢</text><text class="text" font-size="4.0" x="18" y="226.1904761904762">â™¯</text><text class="text" font-size="4.0" x="20" y="228.47619047619048">â™¯</text><text class="text" font-size="8" x="27" y="227.71428571428572">ğ…	</text><text class="text" font-size="8" x="37" y="226.95238095238096">ğ…	</text><text class="text" font-size="8" x="47" y="226.1904761904762">ğ…	</text><text class="text" font-size="8" x="57" y="225.42857142857144">ğ…	</text><text class="text" font-size="8" x="67" y="224.66666666666669">ğ…	</text><text class="text" font-size="8" x="77" y="223.90476190476193">ğ…	</text><line fill="none" stroke="rgb(0%,0%,0%)" stroke-width="0.3" x1="86.2" x2="91" y1="222.4809523809524" y2="222.4809523809524" /><text class="text" font-size="8" x="87" y="223.14285714285717">ğ…	</text><text class="text" font-size="8" x="97" y="222.3809523809524">ğ…	</text><rect fill="none" height="39" stroke="rgb(0%,0%,0%)" stroke-width="0.5" width="103" x="3" y="198" /></g><g id="g_h-min."><text class="text" font-size="5" x="109" y="205">h-Min.</text><rect fill="none" height="8" stroke="rgb(0%,0%,0%)" stroke-width="0.3" width="10" x="125" y="201" /><rect fill="none" height="8" stroke="rgb(0%,0%,0%)" stroke-width="0.3" width="10" x="135" y="201" /><rect fill="none" height="8" stroke="rgb(0%,0%,0%)" stroke-width="0.3" width="10" x="145" y="201" /><rect fill="none" height="8" stroke="rgb(0%,0%,0%)" stroke-width="0.3" width="10" x="155" y="201" /><rect fill="none" height="8" stroke="rgb(0%,0%,0%)" stroke-width="0.3" width="10" x="165" y="201" /><rect fill="none" height="8" stroke="rgb(0%,0%,0%)" stroke-width="0.3" width="10" x="175" y="201" /><rect fill="none" height="8" stroke="rgb(0%,0%,0%)" stroke-width="0.3" width="10" x="185" y="201" /><rect fill="none" height="8" stroke="rgb(0%,0%,0%)" stroke-width="0.3" width="10" x="195" y="201" /><rect fill="rgb(0%,0%,0%)" height="5.6" stroke="rgb(0%,0%,0%)" stroke-width="0.3" width="8" x="141" y="201" /><rect fill="rgb(0%,0%,0%)" height="5.6" stroke="rgb(0%,0%,0%)" stroke-width="0.3" width="8" x="151" y="201" /><rect fill="rgb(0%,0%,0%)" height="5.6" stroke="rgb(0%,0%,0%)" stroke-width="0.3" width="8" x="171" y="201" /><rect fill="rgb(0%,0%,0%)" height="5.6" stroke="rgb(0%,0%,0%)" stroke-width="0.3" width="8" x="181" y="201" /><rect fill="rgb(0%,0%,0%)" height="5.6" stroke="rgb(0%,0%,0%)" stroke-width="0.3" width="8" x="191" y="201" /><text class="text" font-size="8" x="115" y="219">ğ„€ğ„šğ„šğ„šğ„šğ„šğ„šğ„šğ„šğ„šğ„šğ„šğ„šğ„šğ„šğ„šğ„€</text><text class="text" font-size="8" x="115" y="219">ğ„</text><text class="text" font-size="4.0" x="121" y="213.66666666666666">â™¯</text><text class="text" font-size="4.0" x="123" y="215.95238095238096">â™¯</text><text class="text" font-size="8" x="130" y="216.71428571428572">ğ…	</text><text class="text" font-size="8" x="140" y="215.95238095238096">ğ…	</text><text class="text" font-size="8" x="150" y="215.1904761904762">ğ…	</text><text class="text" font-size="8" x="160" y="214.42857142857144">ğ…	</text><text class="text" font-size="8" x="170" y="213.66666666666669">ğ…	</text><text class="text" font-size="8" x="180" y="212.90476190476193">ğ…	</text><line fill="none" stroke="rgb(0%,0%,0%)" stroke-width="0.3" x1="189.2" x2="194" y1="211.4809523809524" y2="211.4809523809524" /><text class="text" font-size="8" x="190" y="212.14285714285717">ğ…	</text><text class="text" font-size="8" x="200" y="211.3809523809524">ğ…	</text><text class="text" font-size="8" x="115" y="230">ğ„€ğ„šğ„šğ„šğ„šğ„šğ„šğ„šğ„šğ„šğ„šğ„šğ„šğ„šğ„šğ„šğ„€</text><text class="text" font-size="8" x="115" y="230">ğ„¢</text><text class="text" font-size="4.0" x="121" y="226.1904761904762">â™¯</text><text class="text" font-size="4.0" x="123" y="228.47619047619048">â™¯</text><text class="text" font-size="8" x="130" y="229.23809523809524">ğ…	</text><text class="text" font-size="8" x="140" y="228.47619047619048">ğ…	</text><text class="text" font-size="8" x="150" y="227.71428571428572">ğ…	</text><text class="text" font-size="8" x="160" y="226.95238095238096">ğ…	</text><text class="text" font-size="8" x="170" y="226.1904761904762">ğ…	</text><text class="text" font-size="8" x="180" y="225.42857142857144">ğ…	</text><text class="text" font-size="8" x="190" y="224.66666666666669">ğ…	</text><text class="text" font-size="8" x="200" y="223.90476190476193">ğ…	</text><rect fill="none" height="39" stroke="rgb(0%,0%,0%)" stroke-width="0.5" width="103" x="106" y="198" /></g><g id="g_a-maj."><text class="text" font-size="5" x="6" y="244">A-Maj.</text><rect fill="none" height="8" stroke="rgb(0%,0%,0%)" stroke-width="0.3" width="10" x="22" y="240" /><rect fill="none" height="8" stroke="rgb(0%,0%,0%)" stroke-width="0.3" width="10" x="32" y="240" /><rect fill="none" height="8" stroke="rgb(0%,0%,0%)" stroke-width="0.3" width="10" x="42" y="240" /><rect fill="none" height="8" stroke="rgb(0%,0%,0%)" stroke-width="0.3" width="10" x="52" y="240" /><rect fill="none" height="8" stroke="rgb(0%,0%,0%)" stroke-width="0.3" width="10" x="62" y="240" /><rect fill="none" height="8" stroke="rgb(0%,0%,0%)" stroke-width="0.3" width="10" x="72" y="240" /><rect fill="none" height="8" stroke="rgb(0%,0%,0%)" stroke-width="0.3" width="10" x="82" y="240" /><rect fill="none" height="8" stroke="rgb(0%,0%,0%)" stroke-width="0.3" width="10" x="92" y="240" /><rect fill="rgb(0%,0%,0%)" height="5.6" stroke="rgb(0%,0%,0%)" stroke-width="0.3" width="8" x="28" y="240" /><rect fill="rgb(0%,0%,0%)" height="5.6" stroke="rgb(0%,0%,0%)" stroke-width="0.3" width="8" x="48" y="240" /><rect fill="rgb(0%,0%,0%)" height="5.6" stroke="rgb(0%,0%,0%)" stroke-width="0.3" width="8" x="58" y="240" /><rect fill="rgb(0%,0%,0%)" height="5.6" stroke="rgb(0%,0%,0%)" stroke-width="0.3" width="8" x="78" y="240" /><rect fill="rgb(0%,0%,0%)" height="5.6" stroke="rgb(0%,0%,0%)" stroke-width="0.3" width="8" x="88" y="240" /><rect fill="rgb(0%,0%,0%)" height="5.6" stroke="rgb(0%,0%,0%)" stroke-width="0.3" width="4" x="98" y="240" /><text class="text" font-size="8" x="12" y="258">ğ„€ğ„šğ„šğ„šğ„šğ„šğ„šğ„šğ„šğ„šğ„šğ„šğ„šğ„šğ„šğ„šğ„€</text><text class="text" font-size="8" x="12" y="258">ğ„</text><text class="text" font-size="4.0" x="18" y="252.66666666666666">â™¯</text><text class="text" font-size="4.0" x="20" y="254.95238095238096">â™¯</text><text class="text" font-size="4.0" x="22" y="251.9047619047619">â™¯</text><text class="text" font-size="8" x="27" y="256.4761904761905">ğ…	</text><text class="text" font-size="8" x="37" y="255.71428571428572">ğ…	</text><text class="text" font-size="8" x="47" y="254.95238095238096">ğ…	</text><text class="text" font-size="8" x="57" y="254.1904761904762">ğ…	</text><text class="text" font-size="8" x="67" y="253.42857142857144">ğ…	</text><text class="text" font-size="8" x="77" y="252.66666666666669">ğ…	</text><text class="text" font-size="8" x="87" y="251.90476190476193">ğ…	</text><line fill="none" stroke="rgb(0%,0%,0%)" stroke-width="0.3" x1="96.2" x2="101" y1="250.4809523809524" y2="250.4809523809524" /><text class="text" font-size="8" x="97" y="251.14285714285717">ğ…	</text><text class="text" font-size="8" x="12" y="269">ğ„€ğ„šğ„šğ„šğ„šğ„šğ„šğ„šğ„šğ„šğ„šğ„šğ„šğ„šğ„šğ„šğ„€</text><text class="text" font-size="8" x="12" y="269">ğ„¢</text><text class="text" font-size="4.0" x="18" y="265.1904761904762">â™¯</text><text class="text" font-size="4.0" x="20" y="267.4761904761905">â™¯</text><text class="text" font-size="4.0" x="22" y="264.42857142857144">â™¯</text><text class="text" font-size="8" x="27" y="269.0">ğ…	</text><text class="text" font-size="8" x="37" y="268.23809523809524">ğ…	</text><text class="text" font-size="8" x="47" y="267.4761904761905">ğ…	</text><text class="text" font-size="8" x="57" y="266.7142857142857">ğ…	</text><text class="text" font-size="8" x="67" y="265.95238095238096">ğ…	</text><text class="text" font-size="8" x="77" y="265.1904761904762">ğ…	</text><text class="text" font-size="8" x="87" y="264.42857142857144">ğ…	</text><text class="text" font-size="8" x="97" y="263.6666666666667">ğ…	</text><rect fill="none" height="39" stroke="rgb(0%,0%,0%)" stroke-width="0.5" width="103" x="3" y="237" /></g><g id="g_fis-min."><text class="text" font-size="5" x="109" y="244">fis-Min.</text><rect fill="none" height="8" stroke="rgb(0%,0%,0%)" stroke-width="0.3" width="10" x="125" y="240" /><rect fill="none" height="8" stroke="rgb(0%,0%,0%)" stroke-width="0.3" width="10" x="135" y="240" /><rect fill="none" height="8" stroke="rgb(0%,0%,0%)" stroke-width="0.3" width="10" x="145" y="240" /><rect fill="none" height="8" stroke="rgb(0%,0%,0%)" stroke-width="0.3" width="10" x="155" y="240" /><rect fill="none" height="8" stroke="rgb(0%,0%,0%)" stroke-width="0.3" width="10" x="165" y="240" /><rect fill="none" height="8" stroke="rgb(0%,0%,0%)" stroke-width="0.3" width="10" x="175" y="240" /><rect fill="none" height="8" stroke="rgb(0%,0%,0%)" stroke-width="0.3" width="10" x="185" y="240" /><rect fill="none" height="8" stroke="rgb(0%,0%,0%)" stroke-width="0.3" width="10" x="195" y="240" /><rect fill="rgb(0%,0%,0%)" height="5.6" stroke="rgb(0%,0%,0%)" stroke-width="0.3" width="8" x="131" y="240" /><rect fill="rgb(0%,0%,0%)" height="5.6" stroke="rgb(0%,0%,0%)" stroke-width="0.3" width="8" x="141" y="240" /><rect fill="rgb(0%,0%,0%)" height="5.6" stroke="rgb(0%,0%,0%)" stroke-width="0.3" width="8" x="151" y="240" /><rect fill="rgb(0%,0%,0%)" height="5.6" stroke="rgb(0%,0%,0%)" stroke-width="0.3" width="8" x="171" y="240" /><rect fill="rgb(0%,0%,0%)" height="5.6" stroke="rgb(0%,0%,0%)" stroke-width="0.3" width="8" x="181" y="240" /><rect fill="rgb(0%,0%,0%)" height="5.6" stroke="rgb(0%,0%,0%)" stroke-width="0.3" width="4" x="201" y="240" /><text class="text" font-size="8" x="115" y="258">ğ„€ğ„šğ„šğ„šğ„šğ„šğ„šğ„šğ„šğ„šğ„šğ„šğ„šğ„šğ„šğ„šğ„€</text><text class="text" font-size="8" x="115" y="258">ğ„</text><text class="text" font-size="4.0" x="121" y="252.66666666666666">â™¯</text><text class="text" font-size="4.0" x="123" y="254.95238095238096">â™¯</text><text class="text" font-size="4.0" x="125" y="251.9047619047619">â™¯</text><text class="text" font-size="8" x="130" y="258.0">ğ…	</text><text class="text" font-size="8" x="140" y="257.23809523809524">ğ…	</text><text class="text" font-size="8" x="150" y="256.4761904761905">ğ…	</text><text class="text" font-size="8" x="160" y="255.71428571428572">ğ…	</text><text class="text" font-size="8" x="170" y="254.95238095238096">ğ…	</text><text class="text" font-size="8" x="180" y="254.1904761904762">ğ…	</text><text class="text" font-size="8" x="190" y="253.42857142857144">ğ…	</text><text class="text" font-size="8" x="200" y="252.66666666666669">ğ…	</text><text class="text" font-size="8" x="115" y="269">ğ„€ğ„šğ„šğ„šğ„šğ„šğ„šğ„šğ„šğ„šğ„šğ„šğ„šğ„šğ„šğ„šğ„€</text><text class="text" font-size="8" x="115" y="269">ğ„¢</text><text class="text" font-size="4.0" x="121" y="265.1904761904762">â™¯</text><text class="text" font-size="4.0" x="123" y="267.4761904761905">â™¯</text><text class="text" font-size="4.0" x="125" y="264.42857142857144">â™¯</text><text class="text" font-size="8" x="130" y="270.5238095238095">ğ…	</text><text class="text" font-size="8" x="140" y="269.76190476190476">ğ…	</text><text class="text" font-size="8" x="150" y="269.0">ğ…	</text><text class="text" font-size="8" x="160" y="268.23809523809524">ğ…	</text><text class="text" font-size="8" x="170" y="267.4761904761905">ğ…	</text><text class="text" font-size="8" x="180" y="266.7142857142857">ğ…	</text><text class="text" font-size="8" x="190" y="265.95238095238096">ğ…	</text><text class="text" font-size="8" x="200" y="265.1904761904762">ğ…	</text><rect fill="none" height="39" stroke="rgb(0%,0%,0%)" stroke-width="0.5" width="103" x="106" y="237" /></g></svg>