<?xml version="1.0" encoding="utf-8" ?>
<svg baseProfile="full" height="297mm" version="1.1" viewBox="0 0 210 297" width="210mm" xmlns="http://www.w3.org/2000/svg" xmlns:ev="http://www.w3.org/2001/xml-events" xmlns:xlink="http://www.w3.org/1999/xlink"><defs><style type="text/css"><![CDATA[.text {
  font-family: 'FreeSerif';
  font-weight: 500;
  font-synthesis: weight;
  font-stretch: 65%;
  fill: #000000;
  paint-order: stroke;
  stroke: #000000;
  stroke-width: 0.1px;
  stroke-linecap: butt;
  stroke-linejoin: miter;
}
]]></style></defs><g id="g_es-dur"><text class="text" font-size="8" x="6" y="13">Es-Dur</text><text class="text" font-size="8" x="6" y="24">𝄀𝄚𝄚𝄚𝄚𝄚𝄚𝄚𝄚𝄚𝄚𝄚𝄚𝄚𝄚𝄚𝄀</text><text class="text" font-size="8" x="6" y="24">𝄞</text><text class="text" font-size="4.0" x="12" y="21.714285714285715">♭</text><text class="text" font-size="4.0" x="14" y="19.42857142857143">♭</text><text class="text" font-size="4.0" x="16" y="22.476190476190474">♭</text><text class="text" font-size="8" x="21" y="24.761904761904763">𝅝	</text><text class="text" font-size="8" x="31" y="24.0">𝅝	</text><text class="text" font-size="8" x="41" y="23.238095238095237">𝅝	</text><text class="text" font-size="8" x="51" y="22.476190476190474">𝅝	</text><text class="text" font-size="8" x="61" y="21.71428571428571">𝅝	</text><text class="text" font-size="8" x="71" y="20.95238095238095">𝅝	</text><text class="text" font-size="8" x="81" y="20.190476190476186">𝅝	</text><text class="text" font-size="8" x="91" y="19.428571428571423">𝅝	</text><text class="text" font-size="8" x="6" y="35">𝄀𝄚𝄚𝄚𝄚𝄚𝄚𝄚𝄚𝄚𝄚𝄚𝄚𝄚𝄚𝄚𝄀</text><text class="text" font-size="8" x="6" y="35">𝄢</text><text class="text" font-size="4.0" x="12" y="34.23809523809524">♭</text><text class="text" font-size="4.0" x="14" y="31.952380952380953">♭</text><text class="text" font-size="4.0" x="16" y="35.0">♭</text><line fill="none" stroke="rgb(0%,0%,0%)" stroke-width="0.3" x1="20.2" x2="25" y1="36.62380952380952" y2="36.62380952380952" /><text class="text" font-size="8" x="21" y="37.285714285714285">𝅝	</text><text class="text" font-size="8" x="31" y="36.523809523809526">𝅝	</text><line fill="none" stroke="rgb(0%,0%,0%)" stroke-width="0.3" x1="40.2" x2="45" y1="35.1" y2="35.1" /><text class="text" font-size="8" x="41" y="35.761904761904766">𝅝	</text><text class="text" font-size="8" x="51" y="35.00000000000001">𝅝	</text><text class="text" font-size="8" x="61" y="34.23809523809525">𝅝	</text><text class="text" font-size="8" x="71" y="33.47619047619049">𝅝	</text><text class="text" font-size="8" x="81" y="32.71428571428573">𝅝	</text><text class="text" font-size="8" x="91" y="31.952380952380967">𝅝	</text><rect fill="none" height="39" stroke="rgb(0%,0%,0%)" stroke-width="0.5" width="103" x="3" y="3" /></g><g id="g_c-moll"><text class="text" font-size="8" x="109" y="13">c-Moll</text><text class="text" font-size="8" x="109" y="24">𝄀𝄚𝄚𝄚𝄚𝄚𝄚𝄚𝄚𝄚𝄚𝄚𝄚𝄚𝄚𝄚𝄀</text><text class="text" font-size="8" x="109" y="24">𝄞</text><text class="text" font-size="4.0" x="115" y="21.714285714285715">♭</text><text class="text" font-size="4.0" x="117" y="19.42857142857143">♭</text><text class="text" font-size="4.0" x="119" y="22.476190476190474">♭</text><line fill="none" stroke="rgb(0%,0%,0%)" stroke-width="0.3" x1="123.2" x2="128" y1="25.623809523809523" y2="25.623809523809523" /><text class="text" font-size="8" x="124" y="26.285714285714285">𝅝	</text><text class="text" font-size="8" x="134" y="25.523809523809522">𝅝	</text><text class="text" font-size="8" x="144" y="24.76190476190476">𝅝	</text><text class="text" font-size="8" x="154" y="23.999999999999996">𝅝	</text><text class="text" font-size="8" x="164" y="23.238095238095234">𝅝	</text><text class="text" font-size="8" x="174" y="22.47619047619047">𝅝	</text><text class="text" font-size="8" x="184" y="21.714285714285708">𝅝	</text><text class="text" font-size="8" x="194" y="20.952380952380945">𝅝	</text><text class="text" font-size="8" x="109" y="35">𝄀𝄚𝄚𝄚𝄚𝄚𝄚𝄚𝄚𝄚𝄚𝄚𝄚𝄚𝄚𝄚𝄀</text><text class="text" font-size="8" x="109" y="35">𝄢</text><text class="text" font-size="4.0" x="115" y="34.23809523809524">♭</text><text class="text" font-size="4.0" x="117" y="31.952380952380953">♭</text><text class="text" font-size="4.0" x="119" y="35.0">♭</text><text class="text" font-size="8" x="124" y="33.476190476190474">𝅝	</text><text class="text" font-size="8" x="134" y="32.714285714285715">𝅝	</text><text class="text" font-size="8" x="144" y="31.952380952380953">𝅝	</text><text class="text" font-size="8" x="154" y="31.19047619047619">𝅝	</text><text class="text" font-size="8" x="164" y="30.428571428571427">𝅝	</text><line fill="none" stroke="rgb(0%,0%,0%)" stroke-width="0.3" x1="173.2" x2="178" y1="29.004761904761903" y2="29.004761904761903" /><text class="text" font-size="8" x="174" y="29.666666666666664">𝅝	</text><text class="text" font-size="8" x="184" y="28.9047619047619">𝅝	</text><line fill="none" stroke="rgb(0%,0%,0%)" stroke-width="0.3" x1="193.2" x2="198" y1="27.480952380952377" y2="27.480952380952377" /><text class="text" font-size="8" x="194" y="28.14285714285714">𝅝	</text><rect fill="none" height="39" stroke="rgb(0%,0%,0%)" stroke-width="0.5" width="103" x="106" y="3" /></g><g id="g_b-dur"><text class="text" font-size="8" x="6" y="52">B-Dur</text><text class="text" font-size="8" x="6" y="63">𝄀𝄚𝄚𝄚𝄚𝄚𝄚𝄚𝄚𝄚𝄚𝄚𝄚𝄚𝄚𝄚𝄀</text><text class="text" font-size="8" x="6" y="63">𝄞</text><text class="text" font-size="4.0" x="12" y="60.714285714285715">♭</text><text class="text" font-size="4.0" x="14" y="58.42857142857143">♭</text><text class="text" font-size="8" x="21" y="60.714285714285715">𝅝	</text><text class="text" font-size="8" x="31" y="59.952380952380956">𝅝	</text><text class="text" font-size="8" x="41" y="59.1904761904762">𝅝	</text><text class="text" font-size="8" x="51" y="58.42857142857144">𝅝	</text><text class="text" font-size="8" x="61" y="57.66666666666668">𝅝	</text><text class="text" font-size="8" x="71" y="56.90476190476192">𝅝	</text><line fill="none" stroke="rgb(0%,0%,0%)" stroke-width="0.3" x1="80.2" x2="85" y1="55.480952380952395" y2="55.480952380952395" /><text class="text" font-size="8" x="81" y="56.14285714285716">𝅝	</text><text class="text" font-size="8" x="91" y="55.3809523809524">𝅝	</text><text class="text" font-size="8" x="6" y="74">𝄀𝄚𝄚𝄚𝄚𝄚𝄚𝄚𝄚𝄚𝄚𝄚𝄚𝄚𝄚𝄚𝄀</text><text class="text" font-size="8" x="6" y="74">𝄢</text><text class="text" font-size="4.0" x="12" y="73.23809523809524">♭</text><text class="text" font-size="4.0" x="14" y="70.95238095238095">♭</text><text class="text" font-size="8" x="21" y="73.23809523809524">𝅝	</text><text class="text" font-size="8" x="31" y="72.47619047619048">𝅝	</text><text class="text" font-size="8" x="41" y="71.71428571428572">𝅝	</text><text class="text" font-size="8" x="51" y="70.95238095238096">𝅝	</text><text class="text" font-size="8" x="61" y="70.1904761904762">𝅝	</text><text class="text" font-size="8" x="71" y="69.42857142857144">𝅝	</text><text class="text" font-size="8" x="81" y="68.66666666666669">𝅝	</text><text class="text" font-size="8" x="91" y="67.90476190476193">𝅝	</text><rect fill="none" height="39" stroke="rgb(0%,0%,0%)" stroke-width="0.5" width="103" x="3" y="42" /></g><g id="g_g-moll"><text class="text" font-size="8" x="109" y="52">g-Moll</text><text class="text" font-size="8" x="109" y="63">𝄀𝄚𝄚𝄚𝄚𝄚𝄚𝄚𝄚𝄚𝄚𝄚𝄚𝄚𝄚𝄚𝄀</text><text class="text" font-size="8" x="109" y="63">𝄞</text><text class="text" font-size="4.0" x="115" y="60.714285714285715">♭</text><text class="text" font-size="4.0" x="117" y="58.42857142857143">♭</text><text class="text" font-size="8" x="124" y="62.23809523809524">𝅝	</text><text class="text" font-size="8" x="134" y="61.47619047619048">𝅝	</text><text class="text" font-size="8" x="144" y="60.71428571428572">𝅝	</text><text class="text" font-size="8" x="154" y="59.95238095238096">𝅝	</text><text class="text" font-size="8" x="164" y="59.190476190476204">𝅝	</text><text class="text" font-size="8" x="174" y="58.428571428571445">𝅝	</text><text class="text" font-size="8" x="184" y="57.666666666666686">𝅝	</text><text class="text" font-size="8" x="194" y="56.904761904761926">𝅝	</text><text class="text" font-size="8" x="109" y="74">𝄀𝄚𝄚𝄚𝄚𝄚𝄚𝄚𝄚𝄚𝄚𝄚𝄚𝄚𝄚𝄚𝄀</text><text class="text" font-size="8" x="109" y="74">𝄢</text><text class="text" font-size="4.0" x="115" y="73.23809523809524">♭</text><text class="text" font-size="4.0" x="117" y="70.95238095238095">♭</text><text class="text" font-size="8" x="124" y="74.76190476190476">𝅝	</text><text class="text" font-size="8" x="134" y="74.0">𝅝	</text><text class="text" font-size="8" x="144" y="73.23809523809524">𝅝	</text><text class="text" font-size="8" x="154" y="72.47619047619048">𝅝	</text><text class="text" font-size="8" x="164" y="71.71428571428572">𝅝	</text><text class="text" font-size="8" x="174" y="70.95238095238096">𝅝	</text><text class="text" font-size="8" x="184" y="70.1904761904762">𝅝	</text><text class="text" font-size="8" x="194" y="69.42857142857144">𝅝	</text><rect fill="none" height="39" stroke="rgb(0%,0%,0%)" stroke-width="0.5" width="103" x="106" y="42" /></g><g id="g_f-dur"><text class="text" font-size="8" x="6" y="91">F-Dur</text><text class="text" font-size="8" x="6" y="102">𝄀𝄚𝄚𝄚𝄚𝄚𝄚𝄚𝄚𝄚𝄚𝄚𝄚𝄚𝄚𝄚𝄀</text><text class="text" font-size="8" x="6" y="102">𝄞</text><text class="text" font-size="4.0" x="12" y="99.71428571428571">♭</text><text class="text" font-size="8" x="21" y="102.0">𝅝	</text><text class="text" font-size="8" x="31" y="101.23809523809524">𝅝	</text><text class="text" font-size="8" x="41" y="100.47619047619048">𝅝	</text><text class="text" font-size="8" x="51" y="99.71428571428572">𝅝	</text><text class="text" font-size="8" x="61" y="98.95238095238096">𝅝	</text><text class="text" font-size="8" x="71" y="98.1904761904762">𝅝	</text><text class="text" font-size="8" x="81" y="97.42857142857144">𝅝	</text><text class="text" font-size="8" x="91" y="96.66666666666669">𝅝	</text><text class="text" font-size="8" x="6" y="113">𝄀𝄚𝄚𝄚𝄚𝄚𝄚𝄚𝄚𝄚𝄚𝄚𝄚𝄚𝄚𝄚𝄀</text><text class="text" font-size="8" x="6" y="113">𝄢</text><text class="text" font-size="4.0" x="12" y="112.23809523809524">♭</text><text class="text" font-size="8" x="21" y="114.52380952380952">𝅝	</text><text class="text" font-size="8" x="31" y="113.76190476190476">𝅝	</text><text class="text" font-size="8" x="41" y="113.0">𝅝	</text><text class="text" font-size="8" x="51" y="112.23809523809524">𝅝	</text><text class="text" font-size="8" x="61" y="111.47619047619048">𝅝	</text><text class="text" font-size="8" x="71" y="110.71428571428572">𝅝	</text><text class="text" font-size="8" x="81" y="109.95238095238096">𝅝	</text><text class="text" font-size="8" x="91" y="109.1904761904762">𝅝	</text><rect fill="none" height="39" stroke="rgb(0%,0%,0%)" stroke-width="0.5" width="103" x="3" y="81" /></g><g id="g_d-moll"><text class="text" font-size="8" x="109" y="91">d-Moll</text><text class="text" font-size="8" x="109" y="102">𝄀𝄚𝄚𝄚𝄚𝄚𝄚𝄚𝄚𝄚𝄚𝄚𝄚𝄚𝄚𝄚𝄀</text><text class="text" font-size="8" x="109" y="102">𝄞</text><text class="text" font-size="4.0" x="115" y="99.71428571428571">♭</text><text class="text" font-size="8" x="124" y="103.52380952380952">𝅝	</text><text class="text" font-size="8" x="134" y="102.76190476190476">𝅝	</text><text class="text" font-size="8" x="144" y="102.0">𝅝	</text><text class="text" font-size="8" x="154" y="101.23809523809524">𝅝	</text><text class="text" font-size="8" x="164" y="100.47619047619048">𝅝	</text><text class="text" font-size="8" x="174" y="99.71428571428572">𝅝	</text><text class="text" font-size="8" x="184" y="98.95238095238096">𝅝	</text><text class="text" font-size="8" x="194" y="98.1904761904762">𝅝	</text><text class="text" font-size="8" x="109" y="113">𝄀𝄚𝄚𝄚𝄚𝄚𝄚𝄚𝄚𝄚𝄚𝄚𝄚𝄚𝄚𝄚𝄀</text><text class="text" font-size="8" x="109" y="113">𝄢</text><text class="text" font-size="4.0" x="115" y="112.23809523809524">♭</text><text class="text" font-size="8" x="124" y="110.71428571428571">𝅝	</text><text class="text" font-size="8" x="134" y="109.95238095238095">𝅝	</text><text class="text" font-size="8" x="144" y="109.19047619047619">𝅝	</text><text class="text" font-size="8" x="154" y="108.42857142857143">𝅝	</text><text class="text" font-size="8" x="164" y="107.66666666666667">𝅝	</text><text class="text" font-size="8" x="174" y="106.90476190476191">𝅝	</text><line fill="none" stroke="rgb(0%,0%,0%)" stroke-width="0.3" x1="183.2" x2="188" y1="105.48095238095239" y2="105.48095238095239" /><text class="text" font-size="8" x="184" y="106.14285714285715">𝅝	</text><text class="text" font-size="8" x="194" y="105.3809523809524">𝅝	</text><rect fill="none" height="39" stroke="rgb(0%,0%,0%)" stroke-width="0.5" width="103" x="106" y="81" /></g><g id="g_c-dur"><text class="text" font-size="8" x="6" y="130">C-Dur</text><text class="text" font-size="8" x="6" y="141">𝄀𝄚𝄚𝄚𝄚𝄚𝄚𝄚𝄚𝄚𝄚𝄚𝄚𝄚𝄚𝄚𝄀</text><text class="text" font-size="8" x="6" y="141">𝄞</text><line fill="none" stroke="rgb(0%,0%,0%)" stroke-width="0.3" x1="20.2" x2="25" y1="142.6238095238095" y2="142.6238095238095" /><text class="text" font-size="8" x="21" y="143.28571428571428">𝅝	</text><text class="text" font-size="8" x="31" y="142.52380952380952">𝅝	</text><text class="text" font-size="8" x="41" y="141.76190476190476">𝅝	</text><text class="text" font-size="8" x="51" y="141.0">𝅝	</text><text class="text" font-size="8" x="61" y="140.23809523809524">𝅝	</text><text class="text" font-size="8" x="71" y="139.47619047619048">𝅝	</text><text class="text" font-size="8" x="81" y="138.71428571428572">𝅝	</text><text class="text" font-size="8" x="91" y="137.95238095238096">𝅝	</text><text class="text" font-size="8" x="6" y="152">𝄀𝄚𝄚𝄚𝄚𝄚𝄚𝄚𝄚𝄚𝄚𝄚𝄚𝄚𝄚𝄚𝄀</text><text class="text" font-size="8" x="6" y="152">𝄢</text><text class="text" font-size="8" x="21" y="150.47619047619048">𝅝	</text><text class="text" font-size="8" x="31" y="149.71428571428572">𝅝	</text><text class="text" font-size="8" x="41" y="148.95238095238096">𝅝	</text><text class="text" font-size="8" x="51" y="148.1904761904762">𝅝	</text><text class="text" font-size="8" x="61" y="147.42857142857144">𝅝	</text><text class="text" font-size="8" x="71" y="146.66666666666669">𝅝	</text><text class="text" font-size="8" x="81" y="145.90476190476193">𝅝	</text><line fill="none" stroke="rgb(0%,0%,0%)" stroke-width="0.3" x1="90.2" x2="95" y1="144.4809523809524" y2="144.4809523809524" /><text class="text" font-size="8" x="91" y="145.14285714285717">𝅝	</text><rect fill="none" height="39" stroke="rgb(0%,0%,0%)" stroke-width="0.5" width="103" x="3" y="120" /></g><g id="g_a-moll"><text class="text" font-size="8" x="109" y="130">a-Moll</text><text class="text" font-size="8" x="109" y="141">𝄀𝄚𝄚𝄚𝄚𝄚𝄚𝄚𝄚𝄚𝄚𝄚𝄚𝄚𝄚𝄚𝄀</text><text class="text" font-size="8" x="109" y="141">𝄞</text><text class="text" font-size="8" x="124" y="139.47619047619048">𝅝	</text><text class="text" font-size="8" x="134" y="138.71428571428572">𝅝	</text><text class="text" font-size="8" x="144" y="137.95238095238096">𝅝	</text><text class="text" font-size="8" x="154" y="137.1904761904762">𝅝	</text><text class="text" font-size="8" x="164" y="136.42857142857144">𝅝	</text><text class="text" font-size="8" x="174" y="135.66666666666669">𝅝	</text><text class="text" font-size="8" x="184" y="134.90476190476193">𝅝	</text><line fill="none" stroke="rgb(0%,0%,0%)" stroke-width="0.3" x1="193.2" x2="198" y1="133.4809523809524" y2="133.4809523809524" /><text class="text" font-size="8" x="194" y="134.14285714285717">𝅝	</text><text class="text" font-size="8" x="109" y="152">𝄀𝄚𝄚𝄚𝄚𝄚𝄚𝄚𝄚𝄚𝄚𝄚𝄚𝄚𝄚𝄚𝄀</text><text class="text" font-size="8" x="109" y="152">𝄢</text><text class="text" font-size="8" x="124" y="152.0">𝅝	</text><text class="text" font-size="8" x="134" y="151.23809523809524">𝅝	</text><text class="text" font-size="8" x="144" y="150.47619047619048">𝅝	</text><text class="text" font-size="8" x="154" y="149.71428571428572">𝅝	</text><text class="text" font-size="8" x="164" y="148.95238095238096">𝅝	</text><text class="text" font-size="8" x="174" y="148.1904761904762">𝅝	</text><text class="text" font-size="8" x="184" y="147.42857142857144">𝅝	</text><text class="text" font-size="8" x="194" y="146.66666666666669">𝅝	</text><rect fill="none" height="39" stroke="rgb(0%,0%,0%)" stroke-width="0.5" width="103" x="106" y="120" /></g><g id="g_g-dur"><text class="text" font-size="8" x="6" y="169">G-Dur</text><text class="text" font-size="8" x="6" y="180">𝄀𝄚𝄚𝄚𝄚𝄚𝄚𝄚𝄚𝄚𝄚𝄚𝄚𝄚𝄚𝄚𝄀</text><text class="text" font-size="8" x="6" y="180">𝄞</text><text class="text" font-size="4.0" x="12" y="174.66666666666666">♯</text><text class="text" font-size="8" x="21" y="179.23809523809524">𝅝	</text><text class="text" font-size="8" x="31" y="178.47619047619048">𝅝	</text><text class="text" font-size="8" x="41" y="177.71428571428572">𝅝	</text><text class="text" font-size="8" x="51" y="176.95238095238096">𝅝	</text><text class="text" font-size="8" x="61" y="176.1904761904762">𝅝	</text><text class="text" font-size="8" x="71" y="175.42857142857144">𝅝	</text><text class="text" font-size="8" x="81" y="174.66666666666669">𝅝	</text><text class="text" font-size="8" x="91" y="173.90476190476193">𝅝	</text><text class="text" font-size="8" x="6" y="191">𝄀𝄚𝄚𝄚𝄚𝄚𝄚𝄚𝄚𝄚𝄚𝄚𝄚𝄚𝄚𝄚𝄀</text><text class="text" font-size="8" x="6" y="191">𝄢</text><text class="text" font-size="4.0" x="12" y="187.1904761904762">♯</text><text class="text" font-size="8" x="21" y="191.76190476190476">𝅝	</text><text class="text" font-size="8" x="31" y="191.0">𝅝	</text><text class="text" font-size="8" x="41" y="190.23809523809524">𝅝	</text><text class="text" font-size="8" x="51" y="189.47619047619048">𝅝	</text><text class="text" font-size="8" x="61" y="188.71428571428572">𝅝	</text><text class="text" font-size="8" x="71" y="187.95238095238096">𝅝	</text><text class="text" font-size="8" x="81" y="187.1904761904762">𝅝	</text><text class="text" font-size="8" x="91" y="186.42857142857144">𝅝	</text><rect fill="none" height="39" stroke="rgb(0%,0%,0%)" stroke-width="0.5" width="103" x="3" y="159" /></g><g id="g_e-moll"><text class="text" font-size="8" x="109" y="169">e-Moll</text><text class="text" font-size="8" x="109" y="180">𝄀𝄚𝄚𝄚𝄚𝄚𝄚𝄚𝄚𝄚𝄚𝄚𝄚𝄚𝄚𝄚𝄀</text><text class="text" font-size="8" x="109" y="180">𝄞</text><text class="text" font-size="4.0" x="115" y="174.66666666666666">♯</text><text class="text" font-size="8" x="124" y="180.76190476190476">𝅝	</text><text class="text" font-size="8" x="134" y="180.0">𝅝	</text><text class="text" font-size="8" x="144" y="179.23809523809524">𝅝	</text><text class="text" font-size="8" x="154" y="178.47619047619048">𝅝	</text><text class="text" font-size="8" x="164" y="177.71428571428572">𝅝	</text><text class="text" font-size="8" x="174" y="176.95238095238096">𝅝	</text><text class="text" font-size="8" x="184" y="176.1904761904762">𝅝	</text><text class="text" font-size="8" x="194" y="175.42857142857144">𝅝	</text><text class="text" font-size="8" x="109" y="191">𝄀𝄚𝄚𝄚𝄚𝄚𝄚𝄚𝄚𝄚𝄚𝄚𝄚𝄚𝄚𝄚𝄀</text><text class="text" font-size="8" x="109" y="191">𝄢</text><text class="text" font-size="4.0" x="115" y="187.1904761904762">♯</text><line fill="none" stroke="rgb(0%,0%,0%)" stroke-width="0.3" x1="123.2" x2="128" y1="192.6238095238095" y2="192.6238095238095" /><text class="text" font-size="8" x="124" y="193.28571428571428">𝅝	</text><text class="text" font-size="8" x="134" y="192.52380952380952">𝅝	</text><text class="text" font-size="8" x="144" y="191.76190476190476">𝅝	</text><text class="text" font-size="8" x="154" y="191.0">𝅝	</text><text class="text" font-size="8" x="164" y="190.23809523809524">𝅝	</text><text class="text" font-size="8" x="174" y="189.47619047619048">𝅝	</text><text class="text" font-size="8" x="184" y="188.71428571428572">𝅝	</text><text class="text" font-size="8" x="194" y="187.95238095238096">𝅝	</text><rect fill="none" height="39" stroke="rgb(0%,0%,0%)" stroke-width="0.5" width="103" x="106" y="159" /></g><g id="g_d-dur"><text class="text" font-size="8" x="6" y="208">D-Dur</text><text class="text" font-size="8" x="6" y="219">𝄀𝄚𝄚𝄚𝄚𝄚𝄚𝄚𝄚𝄚𝄚𝄚𝄚𝄚𝄚𝄚𝄀</text><text class="text" font-size="8" x="6" y="219">𝄞</text><text class="text" font-size="4.0" x="12" y="213.66666666666666">♯</text><text class="text" font-size="4.0" x="14" y="215.95238095238096">♯</text><text class="text" font-size="8" x="21" y="220.52380952380952">𝅝	</text><text class="text" font-size="8" x="31" y="219.76190476190476">𝅝	</text><text class="text" font-size="8" x="41" y="219.0">𝅝	</text><text class="text" font-size="8" x="51" y="218.23809523809524">𝅝	</text><text class="text" font-size="8" x="61" y="217.47619047619048">𝅝	</text><text class="text" font-size="8" x="71" y="216.71428571428572">𝅝	</text><text class="text" font-size="8" x="81" y="215.95238095238096">𝅝	</text><text class="text" font-size="8" x="91" y="215.1904761904762">𝅝	</text><text class="text" font-size="8" x="6" y="230">𝄀𝄚𝄚𝄚𝄚𝄚𝄚𝄚𝄚𝄚𝄚𝄚𝄚𝄚𝄚𝄚𝄀</text><text class="text" font-size="8" x="6" y="230">𝄢</text><text class="text" font-size="4.0" x="12" y="226.1904761904762">♯</text><text class="text" font-size="4.0" x="14" y="228.47619047619048">♯</text><text class="text" font-size="8" x="21" y="227.71428571428572">𝅝	</text><text class="text" font-size="8" x="31" y="226.95238095238096">𝅝	</text><text class="text" font-size="8" x="41" y="226.1904761904762">𝅝	</text><text class="text" font-size="8" x="51" y="225.42857142857144">𝅝	</text><text class="text" font-size="8" x="61" y="224.66666666666669">𝅝	</text><text class="text" font-size="8" x="71" y="223.90476190476193">𝅝	</text><line fill="none" stroke="rgb(0%,0%,0%)" stroke-width="0.3" x1="80.2" x2="85" y1="222.4809523809524" y2="222.4809523809524" /><text class="text" font-size="8" x="81" y="223.14285714285717">𝅝	</text><text class="text" font-size="8" x="91" y="222.3809523809524">𝅝	</text><rect fill="none" height="39" stroke="rgb(0%,0%,0%)" stroke-width="0.5" width="103" x="3" y="198" /></g><g id="g_h-moll"><text class="text" font-size="8" x="109" y="208">h-Moll</text><text class="text" font-size="8" x="109" y="219">𝄀𝄚𝄚𝄚𝄚𝄚𝄚𝄚𝄚𝄚𝄚𝄚𝄚𝄚𝄚𝄚𝄀</text><text class="text" font-size="8" x="109" y="219">𝄞</text><text class="text" font-size="4.0" x="115" y="213.66666666666666">♯</text><text class="text" font-size="4.0" x="117" y="215.95238095238096">♯</text><text class="text" font-size="8" x="124" y="216.71428571428572">𝅝	</text><text class="text" font-size="8" x="134" y="215.95238095238096">𝅝	</text><text class="text" font-size="8" x="144" y="215.1904761904762">𝅝	</text><text class="text" font-size="8" x="154" y="214.42857142857144">𝅝	</text><text class="text" font-size="8" x="164" y="213.66666666666669">𝅝	</text><text class="text" font-size="8" x="174" y="212.90476190476193">𝅝	</text><line fill="none" stroke="rgb(0%,0%,0%)" stroke-width="0.3" x1="183.2" x2="188" y1="211.4809523809524" y2="211.4809523809524" /><text class="text" font-size="8" x="184" y="212.14285714285717">𝅝	</text><text class="text" font-size="8" x="194" y="211.3809523809524">𝅝	</text><text class="text" font-size="8" x="109" y="230">𝄀𝄚𝄚𝄚𝄚𝄚𝄚𝄚𝄚𝄚𝄚𝄚𝄚𝄚𝄚𝄚𝄀</text><text class="text" font-size="8" x="109" y="230">𝄢</text><text class="text" font-size="4.0" x="115" y="226.1904761904762">♯</text><text class="text" font-size="4.0" x="117" y="228.47619047619048">♯</text><text class="text" font-size="8" x="124" y="229.23809523809524">𝅝	</text><text class="text" font-size="8" x="134" y="228.47619047619048">𝅝	</text><text class="text" font-size="8" x="144" y="227.71428571428572">𝅝	</text><text class="text" font-size="8" x="154" y="226.95238095238096">𝅝	</text><text class="text" font-size="8" x="164" y="226.1904761904762">𝅝	</text><text class="text" font-size="8" x="174" y="225.42857142857144">𝅝	</text><text class="text" font-size="8" x="184" y="224.66666666666669">𝅝	</text><text class="text" font-size="8" x="194" y="223.90476190476193">𝅝	</text><rect fill="none" height="39" stroke="rgb(0%,0%,0%)" stroke-width="0.5" width="103" x="106" y="198" /></g><g id="g_a-dur"><text class="text" font-size="8" x="6" y="247">A-Dur</text><text class="text" font-size="8" x="6" y="258">𝄀𝄚𝄚𝄚𝄚𝄚𝄚𝄚𝄚𝄚𝄚𝄚𝄚𝄚𝄚𝄚𝄀</text><text class="text" font-size="8" x="6" y="258">𝄞</text><text class="text" font-size="4.0" x="12" y="252.66666666666666">♯</text><text class="text" font-size="4.0" x="14" y="254.95238095238096">♯</text><text class="text" font-size="4.0" x="16" y="251.9047619047619">♯</text><text class="text" font-size="8" x="21" y="256.4761904761905">𝅝	</text><text class="text" font-size="8" x="31" y="255.71428571428572">𝅝	</text><text class="text" font-size="8" x="41" y="254.95238095238096">𝅝	</text><text class="text" font-size="8" x="51" y="254.1904761904762">𝅝	</text><text class="text" font-size="8" x="61" y="253.42857142857144">𝅝	</text><text class="text" font-size="8" x="71" y="252.66666666666669">𝅝	</text><text class="text" font-size="8" x="81" y="251.90476190476193">𝅝	</text><line fill="none" stroke="rgb(0%,0%,0%)" stroke-width="0.3" x1="90.2" x2="95" y1="250.4809523809524" y2="250.4809523809524" /><text class="text" font-size="8" x="91" y="251.14285714285717">𝅝	</text><text class="text" font-size="8" x="6" y="269">𝄀𝄚𝄚𝄚𝄚𝄚𝄚𝄚𝄚𝄚𝄚𝄚𝄚𝄚𝄚𝄚𝄀</text><text class="text" font-size="8" x="6" y="269">𝄢</text><text class="text" font-size="4.0" x="12" y="265.1904761904762">♯</text><text class="text" font-size="4.0" x="14" y="267.4761904761905">♯</text><text class="text" font-size="4.0" x="16" y="264.42857142857144">♯</text><text class="text" font-size="8" x="21" y="269.0">𝅝	</text><text class="text" font-size="8" x="31" y="268.23809523809524">𝅝	</text><text class="text" font-size="8" x="41" y="267.4761904761905">𝅝	</text><text class="text" font-size="8" x="51" y="266.7142857142857">𝅝	</text><text class="text" font-size="8" x="61" y="265.95238095238096">𝅝	</text><text class="text" font-size="8" x="71" y="265.1904761904762">𝅝	</text><text class="text" font-size="8" x="81" y="264.42857142857144">𝅝	</text><text class="text" font-size="8" x="91" y="263.6666666666667">𝅝	</text><rect fill="none" height="39" stroke="rgb(0%,0%,0%)" stroke-width="0.5" width="103" x="3" y="237" /></g><g id="g_fis-moll"><text class="text" font-size="8" x="109" y="247">fis-Moll</text><text class="text" font-size="8" x="109" y="258">𝄀𝄚𝄚𝄚𝄚𝄚𝄚𝄚𝄚𝄚𝄚𝄚𝄚𝄚𝄚𝄚𝄀</text><text class="text" font-size="8" x="109" y="258">𝄞</text><text class="text" font-size="4.0" x="115" y="252.66666666666666">♯</text><text class="text" font-size="4.0" x="117" y="254.95238095238096">♯</text><text class="text" font-size="4.0" x="119" y="251.9047619047619">♯</text><text class="text" font-size="8" x="124" y="258.0">𝅝	</text><text class="text" font-size="8" x="134" y="257.23809523809524">𝅝	</text><text class="text" font-size="8" x="144" y="256.4761904761905">𝅝	</text><text class="text" font-size="8" x="154" y="255.71428571428572">𝅝	</text><text class="text" font-size="8" x="164" y="254.95238095238096">𝅝	</text><text class="text" font-size="8" x="174" y="254.1904761904762">𝅝	</text><text class="text" font-size="8" x="184" y="253.42857142857144">𝅝	</text><text class="text" font-size="8" x="194" y="252.66666666666669">𝅝	</text><text class="text" font-size="8" x="109" y="269">𝄀𝄚𝄚𝄚𝄚𝄚𝄚𝄚𝄚𝄚𝄚𝄚𝄚𝄚𝄚𝄚𝄀</text><text class="text" font-size="8" x="109" y="269">𝄢</text><text class="text" font-size="4.0" x="115" y="265.1904761904762">♯</text><text class="text" font-size="4.0" x="117" y="267.4761904761905">♯</text><text class="text" font-size="4.0" x="119" y="264.42857142857144">♯</text><text class="text" font-size="8" x="124" y="270.5238095238095">𝅝	</text><text class="text" font-size="8" x="134" y="269.76190476190476">𝅝	</text><text class="text" font-size="8" x="144" y="269.0">𝅝	</text><text class="text" font-size="8" x="154" y="268.23809523809524">𝅝	</text><text class="text" font-size="8" x="164" y="267.4761904761905">𝅝	</text><text class="text" font-size="8" x="174" y="266.7142857142857">𝅝	</text><text class="text" font-size="8" x="184" y="265.95238095238096">𝅝	</text><text class="text" font-size="8" x="194" y="265.1904761904762">𝅝	</text><rect fill="none" height="39" stroke="rgb(0%,0%,0%)" stroke-width="0.5" width="103" x="106" y="237" /></g></svg>